<svg width="134" height="160" viewBox="0 0 134 160" fill="none" xmlns="http://www.w3.org/2000/svg">
<path d="M67.2797 0H38.3437V10.2128H67.2797C98.2519 10.2128 123.45 35.4107 123.45 66.3829C123.45 97.3552 98.2519 122.553 67.2797 122.553C57.0082 122.553 47.0626 119.781 38.3437 114.525V110.529C46.8599 116.138 56.8258 119.149 67.2797 119.149C96.3751 119.149 120.046 95.4784 120.046 66.3829C120.046 37.2875 96.3751 13.6171 67.2797 13.6171H24.7266V23.8299H67.2797C90.7437 23.8299 109.833 42.9195 109.833 66.3829C109.833 89.8464 90.7431 108.936 67.2797 108.936C56.4322 108.936 46.2354 104.92 38.3437 97.5861V92.7248C45.509 100.589 55.8279 105.532 67.2797 105.532C88.8663 105.532 106.428 87.9696 106.428 66.3829C106.428 44.7963 88.8663 27.2341 67.2797 27.2341H0.896729V160H11.1095V37.4469H67.2797C83.2349 37.4469 96.2157 50.4277 96.2157 66.3829C96.2157 82.3381 83.2349 95.3189 67.2797 95.3189C51.3245 95.3189 38.3437 82.3381 38.3437 66.3829V64.6811H28.1309V132.766H38.3437V126.14C47.3133 130.493 57.1645 132.766 67.2797 132.766C103.883 132.766 133.663 102.987 133.663 66.3835C133.663 29.7797 103.883 0 67.2797 0Z" fill="#6DFB6E"/>
<path d="M24.7266 51.064H14.5138V146.383H24.7266V51.064Z" fill="#6DFB6E"/>
</svg>
